# xmcd
#
# Track frame offsets: 
#        150
#        20313
#        33873
#        53758
#        67216
#        84869
#        105822
#        123212
#        140772
#        154524
#
# Disc length: 2256 seconds
#
# Revision: 3
# Processed by: cddbd v1.5.2PL0 Copyright (c) Steve Scherf et al.
# Submitted via: ExactAudioCopy v0.95a4
#
DISCID=7108ce0a
DTITLE=Lindi Ortega - Cigarettes and Truckstops
DYEAR=2012
DGENRE=Country
TTITLE0=Cigarettes and Truckstops
TTITLE1=The Day You Die
TTITLE2=Lead Me On
TTITLE3=Don't Wanna Hear It
TTITLE4=Demons Don't Get Me Down
TTITLE5=Murder of Crows
TTITLE6=Heaven Has No Vacancy
TTITLE7=High
TTITLE8=Use Me
TTITLE9=Every Mile of the Ride
EXTD=Year: 2012
EXTT0=
EXTT1=
EXTT2=
EXTT3=
EXTT4=
EXTT5=
EXTT6=
EXTT7=
EXTT8=
EXTT9=
PLAYORDER=
